<?xml version="1.0" encoding="UTF-8" standalone="no"?>
<!-- Created with Inkscape (http://www.inkscape.org/) -->

<svg
   xmlns:dc="http://purl.org/dc/elements/1.1/"
   xmlns:cc="http://creativecommons.org/ns#"
   xmlns:rdf="http://www.w3.org/1999/02/22-rdf-syntax-ns#"
   xmlns:svg="http://www.w3.org/2000/svg"
   xmlns="http://www.w3.org/2000/svg"
   xmlns:sodipodi="http://sodipodi.sourceforge.net/DTD/sodipodi-0.dtd"
   xmlns:inkscape="http://www.inkscape.org/namespaces/inkscape"
   width="189.83662mm"
   height="217.08775mm"
   viewBox="0 0 189.83662 217.08775"
   version="1.1"
   id="svg10800"
   inkscape:version="0.92.2 (5c3e80d, 2017-08-06)">
  <defs
     id="defs10794" />
  <sodipodi:namedview
     id="base"
     pagecolor="#ffffff"
     bordercolor="#666666"
     borderopacity="1.0"
     inkscape:pageopacity="0.0"
     inkscape:pageshadow="2"
     inkscape:zoom="0.49497475"
     inkscape:cx="642.32165"
     inkscape:cy="380.82556"
     inkscape:document-units="mm"
     inkscape:current-layer="layer1"
     showgrid="false"
     inkscape:window-width="1920"
     inkscape:window-height="986"
     inkscape:window-x="-11"
     inkscape:window-y="-11"
     inkscape:window-maximized="1"
     fit-margin-top="0"
     fit-margin-left="0"
     fit-margin-right="0"
     fit-margin-bottom="0" />
  <metadata
     id="metadata10797">
    <rdf:RDF>
      <cc:Work
         rdf:about="">
        <dc:format>image/svg+xml</dc:format>
        <dc:type
           rdf:resource="http://purl.org/dc/dcmitype/StillImage" />
        <dc:title></dc:title>
      </cc:Work>
    </rdf:RDF>
  </metadata>
  <g
     inkscape:label="Layer 1"
     inkscape:groupmode="layer"
     id="layer1"
     transform="translate(-10.537373,-2.0026409)">
    <path
       style="fill:#000000;fill-opacity:1;stroke:#000000;stroke-width:0.26458332px;stroke-linecap:butt;stroke-linejoin:miter;stroke-opacity:1"
       d="m 124.28033,109.91133 5.61266,4.27631 8.01808,6.41447 1.33635,3.74177 -10.42351,-2.13815 -9.6217,-2.13816 -11.75986,0.53454 -13.096208,1.33635 -6.681739,2.67269 -7.216275,4.00905 c 0,0 -2.138156,0.8018 -2.405428,-1.87089 -0.267269,-2.6727 0.267272,-13.09621 0.267272,-13.09621 l 1.336347,-4.27631 12.027127,-1.06908 16.837984,0.80181 13.89801,0.26727 z"
       id="path11356"
       inkscape:connector-curvature="0" />
    <path
       style="fill:#000000;fill-opacity:1;stroke:#000000;stroke-width:0.26458332px;stroke-linecap:butt;stroke-linejoin:miter;stroke-opacity:1"
       d="m 58.532026,111.24768 2.138157,7.48354 2.138156,7.21628 v 1.60362 l -8.018087,-2.93997 -9.354434,-0.8018 -7.750815,-0.53454 -5.34539,1.06907 -1.603618,2.40543 -1.336347,3.20723 -0.673458,-4.65223 0.850445,-4.15773 3.212799,-6.4256 2.55134,-2.17336 6.425594,-1.41741 10.110864,-0.18899 z"
       id="path11358"
       inkscape:connector-curvature="0" />
    <path
       style="fill:#000000;fill-opacity:1;stroke:#000000;stroke-width:0.99999994px;stroke-linecap:butt;stroke-linejoin:miter;stroke-opacity:1"
       d="m 503.05664,8.3222656 -34.3457,8.0800784 -37.375,4.041015 -1.01172,-9.091797 -17.17188,13.132813 -22.22265,2.019531 -28.28516,-3.029297 -17.17187,12.121094 -48.48828,2.019531 -34.34376,25.253907 -10.10156,21.21289 -18.18359,-4.039062 v -9.091797 l -16.16211,21.21289 -21.21289,7.070313 c 0,0 -17.17345,-10.101195 -18.18359,-16.162109 -1.01016,-6.060915 -2.01954,-16.16211 -2.01954,-16.16211 l -13.13281,21.212891 6.06055,22.224613 18.18359,17.17187 -12.12305,9.0918 -18.18164,-29.29492 c 0,0 -1.00976,-12.121503 -1.00976,-16.162113 0,-4.04061 -13.13281,10.101563 -13.13281,10.101563 l -4.04102,21.21289 11.11328,20.20313 7.07031,10.10156 -7.07031,4.04101 -7.07226,-16.16211 -6.06055,26.26368 -10.10156,26.26367 -12.1211,29.29492 -4.04101,21.21289 -2.02149,60.60938 -6.06054,34.34374 2.02148,26.26563 -5.05078,51.51758 3.0293,7.07031 c 0,0 9.82226,10.45316 11.07226,11.70313 1.25,1.25 5.71485,-2.85547 5.71485,-2.85547 l 7.32031,-41.96485 15.71484,-39.28515 34.28516,-28.57227 c 0,0 25.00083,-18.57115 28.57226,-22.14258 3.57142,-3.57143 22.14285,-16.42773 25,-16.42773 2.85715,0 66.42774,10 66.42774,10 l 36.42969,10 h 38.57031 c 0,0 27.14342,-24.28572 30.71484,-25 3.57143,-0.71429 37.14258,-5 37.14258,-5 l 65.71484,37.14258 55.71289,71.42773 35.71485,28.57227 15.71484,77.14258 -103.57226,24.28515 -63.21289,-6.78515 -71.78711,-2.85743 -41.78516,10 -44.64258,17.85743 -29.28515,-1.07227 -28.57227,2.14258 -20.71484,-7.85547 -27.5,-6.42969 -47.6875,-5.38476 -39.396488,3.2832 -28.789063,5.30273 -25.505859,5.05078 2.019531,11.11133 -0.503906,6.82031 12.878906,6.56446 3.03125,7.07226 5.302735,24.4961 c 0,0 0.756645,9.3428 1.261718,10.60547 0.505078,1.2627 7.576172,19.69923 7.576172,19.69921 l 7.576172,12.87891 14.142578,12.62695 15.404294,7.82813 22.72852,2.7793 27.7793,1.51367 22.47656,-0.25196 15.91015,-4.54492 16.16211,-9.84961 4.79883,-7.07031 6.56445,-21.4668 10.35547,-33.08203 10.10157,-16.16211 10.60546,-5.55664 20.96094,0.50586 7.07227,5.55469 6.06055,11.86914 8.33398,29.54688 12.12109,29.29492 23.23438,19.19336 36.36523,7.07031 32.32422,1.01172 49.49805,-11.11328 17.17187,-10.10157 10.10157,-13.13085 11.25,-37.89258 6.07031,-22.5 5,-12.14258 8.49023,-8.27734 35.35547,-8.8379 34.84961,-9.09179 31.56641,-7.32422 h 2.27343 l -1.00976,35.35547 1.00976,14.14258 16.16211,10.10156 13.63672,-14.64844 12.62696,-39.39453 5.55664,-16.66797 11.61718,-0.50586 12.1211,-6.5664 12.62695,-4.54493 c 0,0 7.57577,0.50427 11.11133,-3.03125 3.53552,-3.53552 11.11133,-14.64648 11.11133,-14.64648 l 5.05078,-61.61914 2.52539,-17.17188 c 0,0 -3.53513,-6.06253 -1.00977,-13.63867 2.52541,-7.57614 6.06055,-19.19141 6.06055,-19.19141 l 9.59766,-16.1621 -1.00977,-16.66797 -3.53711,-8.08203 c 0,0 15.6582,-27.27385 15.6582,-31.31446 0,-4.04061 3.02969,-21.2129 2.01954,-26.26367 -1.01016,-5.05076 -20.20313,-50.50781 -20.20313,-50.50781 l -8.08008,-26.26367 -20.20312,-30.30469 -14.14258,-22.22266 -26.26367,-25.2539 -43.4375,-23.234379 -12.1211,-14.142578 -21.21289,-13.130859 c 0,0 2.01914,-14.142578 -2.02148,-14.142578 -4.04062,0 -13.13086,4.040998 -13.13086,-1.009766 0,-5.050764 -6.06055,-20.203125 -6.06055,-20.203125 l -40.40625,7.070313 -33.33593,-11.111329 z m -107.3418,502.0546844 32.85743,2.14258 30.71289,6.42969 28.21484,14.64258 1.42773,6.78515 -6.78515,32.14258 -13.57031,43.57227 -13.21485,16.42773 -32.14258,8.92969 -50,1.42773 -35.71484,-6.07226 -19.28516,-15 L 310,606.44922 l -12.85742,-31.42969 -1.07031,-19.64258 1.07031,-8.21484 3.92969,-8.92773 9.28515,-8.57227 12.5,-5.71289 38.21485,-9.28711 z m -258.58593,9.08203 40.40625,4.04102 25.75781,5.80664 18.6875,9.0918 8.33398,13.63672 -1.00976,18.43554 -7.57617,27.7793 -8.8379,26.26367 -13.13281,9.59766 -17.67773,6.06055 -25.25391,2.01953 -28.53711,-1.51368 -22.22265,-3.53711 -15.91016,-9.5957 -6.314453,-7.57617 -9.089844,-14.39453 -5.556641,-16.16211 -1.261718,-11.86914 -1.515625,-13.89063 -1.009766,-10.10156 2.525391,-9.5957 2.019531,-7.07227 5.302734,-5.05078 16.919922,-6.81836 26.011719,-5.30273 z"
       transform="scale(0.26458333)"
       id="path11360"
       inkscape:connector-curvature="0" />
    <path
       style="fill:#000000;fill-opacity:1;stroke:#000000;stroke-width:0.26458332px;stroke-linecap:butt;stroke-linejoin:miter;stroke-opacity:1"
       d="m 50.113035,204.92564 c 0,0 0.668174,2.80633 1.469983,3.60814 0.801809,0.80181 5.746295,6.41447 5.746295,6.41447 l 10.69078,3.34087 13.497113,0.66817 8.018084,-2.00452 9.087165,-4.67721 4.009045,-3.20724 3.4745,-4.14268 c 0,0 -3.60814,0.53454 -4.81085,0.40091 -1.20271,-0.13363 -13.096207,0.80181 -13.096207,0.80181 l -12.027127,-0.26727 -13.363477,0.13363 -7.349914,-1.60361 -6.013563,-0.80181 z"
       id="path11366"
       inkscape:connector-curvature="0" />
    <path
       style="fill:#000000;fill-opacity:1;stroke:#000000;stroke-width:0.26458332px;stroke-linecap:butt;stroke-linejoin:miter;stroke-opacity:1"
       d="m 36.816376,144.05501 1.937705,-1.40316 1.469983,-1.1359 1.804069,-0.86862 1.536801,-0.33409 -0.200454,1.06907 -0.467722,2.13816 0.267271,1.46998 1.202711,1.80407 0.935445,1.00227 3.741772,0.60135 c 0,0 2.138156,-0.53454 2.405428,-0.60135 0.267269,-0.0668 1.737251,-0.93545 1.737251,-0.93545 l 1.202711,-1.67043 0.334087,-2.13816 v -0.93544 l 1.670436,1.20271 1.536798,2.53906 0.200454,1.80407 1.135896,-0.80181 -0.868627,-2.73951 -2.009069,-2.37555 -2.60133,-1.70031 -6.815373,-1.5368 -4.308557,-0.11743 -3.141927,1.72451 -2.244233,2.45685 -0.519718,0.94494 z"
       id="path11368"
       inkscape:connector-curvature="0" />
    <path
       style="fill:#000000;fill-opacity:1;stroke:#000000;stroke-width:0.26458332px;stroke-linecap:butt;stroke-linejoin:miter;stroke-opacity:1"
       d="m 97.13988,142.02976 1.984375,-1.51191 2.031625,-1.60639 2.07887,-0.56697 0.94494,0.0472 -1.03944,1.84263 -0.18899,2.03163 0.37798,1.70089 1.18118,1.88988 1.46465,1.27567 2.97657,0.28348 2.74032,-0.47247 1.32292,-0.89769 1.37016,-1.98438 0.42523,-2.26786 -0.0945,-1.79538 -0.56696,-1.37016 1.27567,0.0472 2.55134,0.75595 1.74814,1.13393 0.8032,0.33073 0.7087,-0.51972 -2.22061,-1.37016 -3.26004,-1.18118 -4.06325,-0.80319 -4.81919,-0.33073 -5.10268,0.66146 -2.834824,1.74813 -1.653646,1.98438 z"
       id="path11370"
       inkscape:connector-curvature="0" />
  </g>
</svg>
