<?xml version="1.0" encoding="UTF-8" standalone="no"?>
<svg
   xmlns:dc="http://purl.org/dc/elements/1.1/"
   xmlns:cc="http://creativecommons.org/ns#"
   xmlns:rdf="http://www.w3.org/1999/02/22-rdf-syntax-ns#"
   xmlns:svg="http://www.w3.org/2000/svg"
   xmlns="http://www.w3.org/2000/svg"
   xmlns:sodipodi="http://sodipodi.sourceforge.net/DTD/sodipodi-0.dtd"
   xmlns:inkscape="http://www.inkscape.org/namespaces/inkscape"
   width="192.66mm"
   height="235.04mm"
   version="1.1"
   viewBox="0 0 192.66 235.04"
   id="svg3613"
   sodipodi:docname="face2.svg"
   inkscape:version="0.92.2 (5c3e80d, 2017-08-06)">
  <metadata
     id="metadata3619">
    <rdf:RDF>
      <cc:Work
         rdf:about="">
        <dc:format>image/svg+xml</dc:format>
        <dc:type
           rdf:resource="http://purl.org/dc/dcmitype/StillImage" />
        <dc:title></dc:title>
      </cc:Work>
    </rdf:RDF>
  </metadata>
  <defs
     id="defs3617" />
  <sodipodi:namedview
     pagecolor="#ffffff"
     bordercolor="#666666"
     borderopacity="1"
     objecttolerance="10"
     gridtolerance="10"
     guidetolerance="10"
     inkscape:pageopacity="0"
     inkscape:pageshadow="2"
     inkscape:window-width="1920"
     inkscape:window-height="986"
     id="namedview3615"
     showgrid="false"
     inkscape:zoom="0.26566401"
     inkscape:cx="364.0819"
     inkscape:cy="444.17007"
     inkscape:window-x="-11"
     inkscape:window-y="-11"
     inkscape:window-maximized="1"
     inkscape:current-layer="svg3613" />
  <style
     type="text/css"
     id="style817"><![CDATA[
		.face {
			transition: transform 0.9s; 
		}
		.face:hover { 
			transform: scale(.99); 
		}
    ]]></style>
  <g
     transform="matrix(-1,0,0,1,202.35155,-9.98)"
     id="g3611"
     style="stroke:#000000;stroke-width:0.26458001px">
    <path
       class="face"
       d="m 38.554,171.13 2.6458,-13.985 2.2679,-14.741 2.6458,-12.473 3.7798,-2.6458 h 5.6696 l 5.2917,-6.0476 4.9137,-6.8036 0.75595,-6.0476 5.6696,2.6458 7.1815,4.9137 8.3155,3.4018 9.4494,-1.1339 6.4256,-7.9375 6.8036,-2.6458 10.961,-1.5119 9.0714,-1.1339 4.5357,-1.8899 3.0238,-1.1339 4.9137,7.1816 9.8274,2.6458 7.1816,0.37798 7.5595,-2.6458 2.6458,-4.9137 4.5357,3.4018 1.5119,9.0714 0.75596,11.339 1.1339,10.205 3.0238,-7.9375 3.4018,-10.205 0.75595,-4.9137 6.4256,-2.6458 6.0476,-16.631 3.4018,-16.253 1.1339,-15.119 -1.8899,-14.363 -4.9137,-2.2679 -3.7798,-1.5119 -4.9137,-9.0714 -10.205,-7.5595 -7.5595,-3.4018 -9.4494,0.75595 -7.5595,-7.5595 -7.5595,-6.0476 -12.851,-3.7798 -15.119,3.0238 -16.631,0.37798 -7.5595,4.9137 -11.717,-1.1339 -9.8274,1.5119 -9.8274,-3.0238 -7.5595,2.2679 -10.961,1.5119 -13.985,5.2917 c 0,0 -3.7798,5.6696 -3.7798,7.1815 0,1.5119 2.2679,4.9137 2.2679,4.9137 l -9.8274,6.0476 -4.5357,7.9375 1.8899,6.4256 -4.1577,6.8036 0.75595,6.4256 1.5119,6.8036 -2.6458,10.961 0.75595,10.205 3.0238,13.985 4.5357,6.8036 3.4018,10.205 -0.37798,6.0476 6.8036,4.9137 5.2917,13.229 z"
       id="path3599"
       inkscape:connector-curvature="0" />
    <path
       class="face"
       d="m 114.34,131.82 5.2917,0.75595 2.4568,2.6458 1.8899,6.4256 -2.8348,7.1816 -8.3155,-2.8348 -13.229,-3.4018 -10.583,-0.94495 c 0,0 -7.1815,0.56697 -8.3155,0.56697 -1.1339,0 -8.3155,0.94494 -8.3155,0.94494 l -7.5595,2.2679 -5.2917,1.5119 c 0,0 0,-2.8348 0.75595,-3.5908 0.75595,-0.75595 6.0476,-5.4807 6.0476,-5.4807 l 5.2917,-3.9688 10.772,-3.4018 17.954,0.56696 z"
       id="path3601"
       inkscape:connector-curvature="0" />
    <path
       class="face"
       d="m 171.79,138.44 2.5041,1.1339 1.8899,0.99219 0.94494,1.7009 0.47247,3.3545 0.28348,1.8426 -1.1339,3.1183 -0.56697,0.66146 -1.9371,-2.4568 -3.4963,-0.99218 -6.3784,-0.0473 -8.5045,0.7087 c 0,0 -7.087,0.28349 -7.4178,0.28349 -0.3308,0 -7.465,1.6064 -7.465,1.6064 l -2.5041,0.75595 0.90003,-6.3112 3.6081,-6.4145 4.8108,-3.7418 4.6772,-0.93544 8.5526,1.47 z"
       id="path3603"
       inkscape:connector-curvature="0" />
    <path
       class="face"
       d="m 89.535,229.38 5.6127,2.1382 5.3454,5.6127 14.165,6.949 10.156,0.80181 9.0872,-0.80181 6.4145,-2.6727 2.6727,-3.7418 2.4054,-3.4745 2.4054,-5.0781 0.80181,-1.3364 -6.949,2.94 -10.958,1.8709 -10.691,-0.53454 -10.958,-1.0691 -14.433,-2.1382 -2.6727,-0.80181 z"
       id="path3605"
       inkscape:connector-curvature="0" />
    <path
       class="face"
       d="m 73.098,157.08 c 0.73499,0 3.4745,-0.53454 3.7418,-0.73499 0.26727,-0.20045 3.5413,-0.93545 3.8086,-1.0023 0.26727,-0.0668 2.6059,-0.40091 2.6059,-0.40091 0,0 -0.46772,0.80181 -0.60136,1.8041 -0.13363,1.0023 0,3.4745 0,3.4745 0,0 0.4009,1.9377 0.93544,2.1382 0.53454,0.20045 1.2695,1.0023 1.8709,1.47 0.60136,0.46772 2.7395,1.0023 2.7395,1.0023 h 2.6727 c 0,0 1.5368,-0.26727 1.9377,-0.60136 0.4009,-0.33409 2.3386,-2.8732 2.3386,-2.8732 l 1.1359,-2.4054 -0.13363,-3.0068 -0.60136,-0.60136 2.5391,0.73499 3.1404,2.2718 2.1382,1.8709 1.47,1.5368 2.0045,0.8018 0.73499,-1.0691 -0.60135,-3.0736 -5.4122,-5.6795 -7.6172,-2.6059 -6.0804,-0.33408 -6.3476,0.8018 -3.5413,1.5368 -3.4077,2.0045 -3.0068,2.0713 0.20045,1.3364 z"
       id="path3607"
       inkscape:connector-curvature="0" />
    <path
       class="face"
       d="m 147.2,159.42 c 0,0 -0.4009,1.8709 -0.4009,2.1382 0,0.26727 0.53454,2.205 0.53454,2.205 l 1.2695,2.5391 2.539,1.6036 c 0,0 1.3364,0.73499 2.0045,0.66817 0.66817,-0.0668 4.5436,-0.60136 4.5436,-0.60136 l 1.7372,-1.8709 1.2027,-1.8709 0.13364,-2.3386 -0.46772,-2.5391 -1.0023,-1.2027 -1.4032,-0.93545 2.4722,0.20046 3.675,0.80181 3.4077,1.2695 1.6704,1.2695 c 0,0 0.66818,1.1359 0.73499,0.80181 0.0668,-0.33408 0.26727,-1.6704 0.26727,-1.6704 l -0.93544,-2.7395 -3.675,-2.0045 -7.9513,-1.0691 -4.41,0.46772 -3.5413,0.86862 -4.2095,1.8709 -3.8086,2.4722 -2.5391,2.2718 -0.86862,1.2027 0.0668,0.86862 1.6036,-1.5368 2.7395,-1.7372 4.6772,-1.8709 z"
       id="path3609"
       inkscape:connector-curvature="0" />
  </g>
</svg>
