<svg width="192.66mm" height="235.04mm" version="1.1" viewBox="0 0 192.66 235.04" xmlns="http://www.w3.org/2000/svg">
 <style type="text/css"><![CDATA[
		.face {
			transition: transform 0.9s; 
		}
		.face:hover { 
			transform: scale(.99); 
		}
    ]]></style>
 <g transform="matrix(-1 0 0 1 202.35 -9.98)" stroke="#000" stroke-width=".26458px">
  <path class="face" d="m173.49 171.13-2.6458-13.985-2.2679-14.741-2.6458-12.473-3.7798-2.6458h-5.6696l-5.2917-6.0476-4.9137-6.8036-0.75595-6.0476-5.6696 2.6458-7.1815 4.9137-8.3155 3.4018-9.4494-1.1339-6.4256-7.9375-6.8036-2.6458-10.961-1.5119-9.0714-1.1339-4.5357-1.8899-3.0238-1.1339-4.9137 7.1816-9.8274 2.6458-7.1816 0.37798-7.5595-2.6458-2.6458-4.9137-4.5357 3.4018-1.5119 9.0714-0.75596 11.339-1.1339 10.205-3.0238-7.9375-3.4018-10.205-0.75595-4.9137-6.4256-2.6458-6.0476-16.631-3.4018-16.253-1.1339-15.119 1.8899-14.363 4.9137-2.2679 3.7798-1.5119 4.9137-9.0714 10.205-7.5595 7.5595-3.4018 9.4494 0.75595 7.5595-7.5595 7.5595-6.0476 12.851-3.7798 15.119 3.0238 16.631 0.37798 7.5595 4.9137 11.717-1.1339 9.8274 1.5119 9.8274-3.0238 7.5595 2.2679 10.961 1.5119 13.985 5.2917s3.7798 5.6696 3.7798 7.1815-2.2679 4.9137-2.2679 4.9137l9.8274 6.0476 4.5357 7.9375-1.8899 6.4256 4.1577 6.8036-0.75595 6.4256-1.5119 6.8036 2.6458 10.961-0.75595 10.205-3.0238 13.985-4.5357 6.8036-3.4018 10.205 0.37798 6.0476-6.8036 4.9137-5.2917 13.229z"/>
  <path class="face" d="m97.705 131.82-5.2917 0.75595-2.4568 2.6458-1.8899 6.4256 2.8348 7.1816 8.3155-2.8348 13.229-3.4018 10.583-0.94495s7.1815 0.56697 8.3155 0.56697c1.1339 0 8.3155 0.94494 8.3155 0.94494l7.5595 2.2679 5.2917 1.5119s0-2.8348-0.75595-3.5908c-0.75595-0.75595-6.0476-5.4807-6.0476-5.4807l-5.2917-3.9688-10.772-3.4018-17.954 0.56696z"/>
  <path class="face" d="m40.255 138.44-2.5041 1.1339-1.8899 0.99219-0.94494 1.7009-0.47247 3.3545-0.28348 1.8426 1.1339 3.1183 0.56697 0.66146 1.9371-2.4568 3.4963-0.99218 6.3784-0.0473 8.5045 0.7087s7.087 0.28349 7.4178 0.28349 7.465 1.6064 7.465 1.6064l2.5041 0.75595-0.90003-6.3112-3.6081-6.4145-4.8108-3.7418-4.6772-0.93544-8.5526 1.47z"/>
  <path class="face" d="m118.59 224.71-0.94718 1.0818-5.3454 5.6127-14.165 6.949-10.156 0.80181-9.0872-0.80181-6.4145-2.6727-2.6727-3.7418-2.4054-3.4745-2.4054-5.0781-0.80181-1.3364 6.949 2.94 10.958 1.8709 10.691-0.53454 10.958-1.0691 14.433-2.1382 2.6727-0.80181z"/>
  <path class="face" d="m138.95 157.08c-0.73499 0-3.4745-0.53454-3.7418-0.73499-0.26727-0.20045-3.5413-0.93545-3.8086-1.0023-0.26727-0.0668-2.6059-0.40091-2.6059-0.40091s0.46772 0.80181 0.60136 1.8041c0.13363 1.0023 0 3.4745 0 3.4745s-0.4009 1.9377-0.93544 2.1382c-0.53454 0.20045-1.2695 1.0023-1.8709 1.47-0.60136 0.46772-2.7395 1.0023-2.7395 1.0023h-2.6727s-1.5368-0.26727-1.9377-0.60136-2.3386-2.8732-2.3386-2.8732l-1.1359-2.4054 0.13363-3.0068 0.60136-0.60136-2.5391 0.73499-3.1404 2.2718-2.1382 1.8709-1.47 1.5368-2.0045 0.8018-0.73499-1.0691 0.60135-3.0736 5.4122-5.6795 7.6172-2.6059 6.0804-0.33408 6.3476 0.8018 3.5413 1.5368 3.4077 2.0045 3.0068 2.0713-0.20045 1.3364z"/>
  <path class="face" d="m64.845 159.42s0.4009 1.8709 0.4009 2.1382c0 0.26727-0.53454 2.205-0.53454 2.205l-1.2695 2.5391-2.539 1.6036s-1.3364 0.73499-2.0045 0.66817c-0.66817-0.0668-4.5436-0.60136-4.5436-0.60136l-1.7372-1.8709-1.2027-1.8709-0.13364-2.3386 0.46772-2.5391 1.0023-1.2027 1.4032-0.93545-2.4722 0.20046-3.675 0.80181-3.4077 1.2695-1.6704 1.2695s-0.66818 1.1359-0.73499 0.80181c-0.0668-0.33408-0.26727-1.6704-0.26727-1.6704l0.93544-2.7395 3.675-2.0045 7.9513-1.0691 4.41 0.46772 3.5413 0.86862 4.2095 1.8709 3.8086 2.4722 2.5391 2.2718 0.86862 1.2027-0.0668 0.86862-1.6036-1.5368-2.7395-1.7372-4.6772-1.8709z"/>
 </g>
</svg>
